# xmcd
#
# Track frame offsets:
#	150
#	31387
#	50005
#	69852
#	87697
#	101610
#	126400
#	145912
#	166422
#	183950
#	210402
#	232400
#
# Disc length: 3347 seconds
#
# Revision: 0
# Processed by: cddbd v1.4PL0 Copyright (c) Steve Scherf et al.
# Submitted via: audiograbber 1.82.01
#
DISCID=b00d110c
DTITLE=Claude Bolling Big Band - Cinemadreams
DYEAR=1996
DGENRE=Jazz - Big Band Swing
TTITLE0=Borsalino
TTITLE1=Raindrops Keep Fallin' on My Head
TTITLE2=Finian's Rainbows
TTITLE3=A Pairs of Twins
TTITLE4=The Pink Panther
TTITLE5=Lawrence of Arabia - Lala's Theme (Medley)
TTITLE6=The Entertainer
TTITLE7=Laura
TTITLE8=As Time Goes By
TTITLE9=La Strada
TTITLE10=High Noon
TTITLE11=Everybody Wants to Be a Cat
EXTD=
EXTT0=
EXTT1=
EXTT2=
EXTT3=
EXTT4=
EXTT5=
EXTT6=
EXTT7=
EXTT8=
EXTT9=
EXTT10=
EXTT11=
PLAYORDER=
